<svg width="388" height="105" viewBox="0 0 388 105" fill="none" xmlns="http://www.w3.org/2000/svg">
<path d="M39.69 27.86V37.45H26.67V77H14.7V37.45H1.68V27.86H39.69ZM57.6674 44.45C59.0674 42.3033 60.8174 40.6233 62.9174 39.41C65.0174 38.15 67.3508 37.52 69.9174 37.52V50.19H66.6274C63.6408 50.19 61.4008 50.8433 59.9074 52.15C58.4141 53.41 57.6674 55.65 57.6674 58.87V77H45.6974V37.94H57.6674V44.45ZM81.6588 33.88C79.5588 33.88 77.8322 33.2733 76.4788 32.06C75.1722 30.8 74.5188 29.26 74.5188 27.44C74.5188 25.5733 75.1722 24.0333 76.4788 22.82C77.8322 21.56 79.5588 20.93 81.6588 20.93C83.7122 20.93 85.3922 21.56 86.6988 22.82C88.0522 24.0333 88.7288 25.5733 88.7288 27.44C88.7288 29.26 88.0522 30.8 86.6988 32.06C85.3922 33.2733 83.7122 33.88 81.6588 33.88ZM87.6088 37.94V77H75.6388V37.94H87.6088ZM108.253 43.47C109.42 41.65 111.03 40.18 113.083 39.06C115.137 37.94 117.54 37.38 120.293 37.38C123.513 37.38 126.43 38.1967 129.043 39.83C131.657 41.4633 133.71 43.7967 135.203 46.83C136.743 49.8633 137.513 53.3867 137.513 57.4C137.513 61.4133 136.743 64.96 135.203 68.04C133.71 71.0733 131.657 73.43 129.043 75.11C126.43 76.7433 123.513 77.56 120.293 77.56C117.587 77.56 115.183 77 113.083 75.88C111.03 74.76 109.42 73.3133 108.253 71.54V95.62H96.2834V37.94H108.253V43.47ZM125.333 57.4C125.333 54.4133 124.493 52.08 122.813 50.4C121.18 48.6733 119.15 47.81 116.723 47.81C114.343 47.81 112.313 48.6733 110.633 50.4C109 52.1267 108.183 54.4833 108.183 57.47C108.183 60.4567 109 62.8133 110.633 64.54C112.313 66.2667 114.343 67.13 116.723 67.13C119.103 67.13 121.133 66.2667 122.813 64.54C124.493 62.7667 125.333 60.3867 125.333 57.4ZM141.413 57.4C141.413 53.3867 142.16 49.8633 143.653 46.83C145.193 43.7967 147.27 41.4633 149.883 39.83C152.496 38.1967 155.413 37.38 158.633 37.38C161.386 37.38 163.79 37.94 165.843 39.06C167.943 40.18 169.553 41.65 170.673 43.47V37.94H182.643V77H170.673V71.47C169.506 73.29 167.873 74.76 165.773 75.88C163.72 77 161.316 77.56 158.563 77.56C155.39 77.56 152.496 76.7433 149.883 75.11C147.27 73.43 145.193 71.0733 143.653 68.04C142.16 64.96 141.413 61.4133 141.413 57.4ZM170.673 57.47C170.673 54.4833 169.833 52.1267 168.153 50.4C166.52 48.6733 164.513 47.81 162.133 47.81C159.753 47.81 157.723 48.6733 156.043 50.4C154.41 52.08 153.593 54.4133 153.593 57.4C153.593 60.3867 154.41 62.7667 156.043 64.54C157.723 66.2667 159.753 67.13 162.133 67.13C164.513 67.13 166.52 66.2667 168.153 64.54C169.833 62.8133 170.673 60.4567 170.673 57.47ZM215.103 37.52C219.676 37.52 223.316 39.0133 226.023 42C228.776 44.94 230.153 49 230.153 54.18V77H218.253V55.79C218.253 53.1767 217.576 51.1467 216.223 49.7C214.87 48.2533 213.05 47.53 210.763 47.53C208.476 47.53 206.656 48.2533 205.303 49.7C203.95 51.1467 203.273 53.1767 203.273 55.79V77H191.303V37.94H203.273V43.12C204.486 41.3933 206.12 40.04 208.173 39.06C210.226 38.0333 212.536 37.52 215.103 37.52ZM260.241 66.85V77H254.151C249.811 77 246.428 75.95 244.001 73.85C241.574 71.7033 240.361 68.2267 240.361 63.42V47.88H235.601V37.94H240.361V28.42H252.331V37.94H260.171V47.88H252.331V63.56C252.331 64.7267 252.611 65.5667 253.171 66.08C253.731 66.5933 254.664 66.85 255.971 66.85H260.241ZM264.528 57.4C264.528 53.3867 265.275 49.8633 266.768 46.83C268.308 43.7967 270.385 41.4633 272.998 39.83C275.612 38.1967 278.528 37.38 281.748 37.38C284.502 37.38 286.905 37.94 288.958 39.06C291.058 40.18 292.668 41.65 293.788 43.47V37.94H305.758V77H293.788V71.47C292.622 73.29 290.988 74.76 288.888 75.88C286.835 77 284.432 77.56 281.678 77.56C278.505 77.56 275.612 76.7433 272.998 75.11C270.385 73.43 268.308 71.0733 266.768 68.04C265.275 64.96 264.528 61.4133 264.528 57.4ZM293.788 57.47C293.788 54.4833 292.948 52.1267 291.268 50.4C289.635 48.6733 287.628 47.81 285.248 47.81C282.868 47.81 280.838 48.6733 279.158 50.4C277.525 52.08 276.708 54.4133 276.708 57.4C276.708 60.3867 277.525 62.7667 279.158 64.54C280.838 66.2667 282.868 67.13 285.248 67.13C287.628 67.13 289.635 66.2667 291.268 64.54C292.948 62.8133 293.788 60.4567 293.788 57.47ZM326.388 44.45C327.788 42.3033 329.538 40.6233 331.638 39.41C333.738 38.15 336.071 37.52 338.638 37.52V50.19H335.348C332.361 50.19 330.121 50.8433 328.628 52.15C327.135 53.41 326.388 55.65 326.388 58.87V77H314.418V37.94H326.388V44.45ZM341.98 57.4C341.98 53.3867 342.726 49.8633 344.22 46.83C345.76 43.7967 347.836 41.4633 350.45 39.83C353.063 38.1967 355.98 37.38 359.2 37.38C361.953 37.38 364.356 37.94 366.41 39.06C368.51 40.18 370.12 41.65 371.24 43.47V37.94H383.21V77H371.24V71.47C370.073 73.29 368.44 74.76 366.34 75.88C364.286 77 361.883 77.56 359.13 77.56C355.956 77.56 353.063 76.7433 350.45 75.11C347.836 73.43 345.76 71.0733 344.22 68.04C342.726 64.96 341.98 61.4133 341.98 57.4ZM371.24 57.47C371.24 54.4833 370.4 52.1267 368.72 50.4C367.086 48.6733 365.08 47.81 362.7 47.81C360.32 47.81 358.29 48.6733 356.61 50.4C354.976 52.08 354.16 54.4133 354.16 57.4C354.16 60.3867 354.976 62.7667 356.61 64.54C358.29 66.2667 360.32 67.13 362.7 67.13C365.08 67.13 367.086 66.2667 368.72 64.54C370.4 62.8133 371.24 60.4567 371.24 57.47Z" fill="url(#paint0_linear_1_25)"/>
<path d="M64 41.45H99V6.45H64V41.45Z" fill="black"/>
<defs>
<linearGradient id="paint0_linear_1_25" x1="0" y1="52.5" x2="388" y2="52.5" gradientUnits="userSpaceOnUse">
<stop stop-color="#3B82F6"/>
<stop offset="1" stop-color="#22C55E"/>
</linearGradient>
</defs>
</svg>
